#!OML:ASF X:\für Bonn\!DataBase\2005_08_12_Daniel\c3d\Daniel.ASF
:FULLY-SPECIFIED
:DEGREES
63
root -22.1276 16.6937 24.6457 -165.94 78.5029 546.983
lowerback 11.9724 -6.37946 -4.33214
upperback 5.83086 -8.60848 -1.7392
thorax -0.166588 -4.23513 1.58007
lowerneck -0.149803 8.85161 -1.83732
upperneck 1.55423 12.1825 -11.0453
head 1.15843 6.03813 -3.04135
rclavicle 3.97569e-014 6.36111e-015
rhumerus -66.5715 3.16479 -90.9872
rradius 55.7252
rwrist -8.98685
rhand -29.4485 28.4436
rfingers 7.12502
rthumb -2.78483 -1.518
lclavicle 3.97569e-014 6.36111e-015
lhumerus -43.967 -2.18807 88.3428
lradius 101.553
lwrist 11.7039
lhand -14.8921 -12.1025
lfingers 7.12502
lthumb 11.2688 17.5748
rfemur -39.1609 1.59201 19.3354
rtibia 60.969
rfoot -22.0632 -3.20486
rtoes -19.9289
lfemur 13.1449 -1.89938 -24.1342
ltibia 27.6777
lfoot -28.8066 0.916704
ltoes -7.92479
64
root -21.9747 16.6475 24.6015 -165.125 78.4759 547.866
lowerback 12.1716 -6.33745 -3.98157
upperback 5.8136 -8.52622 -1.68162
thorax -0.340846 -4.18421 1.46968
lowerneck -0.179023 8.95886 -1.49883
upperneck 1.37107 12.3122 -11.2181
head 1.14737 6.11056 -3.15501
rclavicle 2.62396e-014 -1.59028e-015
rhumerus -66.0216 2.88072 -90.574
rradius 56.2512
rwrist -7.92282
rhand -29.6049 28.3812
rfingers 7.12502
rthumb -2.93587 -1.57833
lclavicle 2.62396e-014 -1.59028e-015
lhumerus -44.2983 -2.18274 88.4426
lradius 100.406
lwrist 12.0677
lhand -14.6122 -12.259
lfingers 7.12502
lthumb 11.5388 17.4033
rfemur -38.5547 1.49339 19.3718
rtibia 61.223
rfoot -22.6807 -2.88496
rtoes -20.5914
lfemur 12.8724 -1.80761 -23.9596
ltibia 29.1546
lfoot -28.5955 0.642135
ltoes -8.8005
65
root -21.8246 16.597 24.5564 -164.532 78.4362 548.547
lowerback 12.4538 -6.29376 -3.66343
upperback 5.77223 -8.44747 -1.61436
thorax -0.577177 -4.13446 1.39733
lowerneck -0.185869 9.05158 -1.14693
upperneck 1.19608 12.4265 -11.4581
head 1.14114 6.17585 -3.29519
rclavicle 1.11319e-014 6.67916e-014
rhumerus -65.3791 2.62838 -90.2125
rradius 56.7513
rwrist -7.04265
rhand -29.7893 28.4716
rfingers 7.12502
rthumb -3.11401 -1.48543
lclavicle 1.11319e-014 6.67916e-014
lhumerus -44.6722 -2.10505 88.617
lradius 99.1688
lwrist 12.4915
lhand -14.3361 -12.2818
lfingers 7.12502
lthumb 11.805 17.3655
rfemur -37.9269 1.33254 19.3708
rtibia 61.4869
rfoot -23.3734 -2.52253
rtoes -20.7587
lfemur 12.4726 -1.75752 -23.8472
ltibia 30.8943
lfoot -28.3085 0.446793
ltoes -9.72944
66
root -21.6731 16.5464 24.5103 -163.704 78.4189 549.456
lowerback 12.6712 -6.22133 -3.26581
upperback 5.77443 -8.31411 -1.5698
thorax -0.749647 -4.05745 1.24112
lowerneck -0.275179 9.11326 -0.739202
upperneck 1.01238 12.4985 -11.6572
head 1.14529 6.21771 -3.4288
rclavicle 1.98785e-014 1.11319e-014
rhumerus -64.5182 2.42597 -90.0281
rradius 57.2122
rwrist -6.43117
rhand -30.0627 28.5398
rfingers 7.12502
rthumb -3.378 -1.41316
lclavicle 1.98785e-014 1.11319e-014
lhumerus -44.936 -2.09021 88.7982
lradius 97.7856
lwrist 12.9988
lhand -14.1175 -12.3881
lfingers 7.12502
lthumb 12.0158 17.247
rfemur -37.2981 1.14632 19.4509
rtibia 61.7245
rfoot -24.0293 -2.17413
rtoes -20.8651
lfemur 11.8928 -1.69452 -23.7039
ltibia 32.9127
lfoot -27.8895 0.287487
ltoes -10.3088
67
root -21.5181 16.4977 24.4606 -162.948 78.3862 550.338
lowerback 12.9662 -6.16699 -2.86308
upperback 5.73358 -8.20688 -1.49591
thorax -1.0022 -3.99304 1.12549
lowerneck -0.308365 9.18871 -0.330172
upperneck 0.872667 12.5966 -11.9392
head 1.16304 6.27259 -3.59263
rclavicle -1.90833e-014 0
rhumerus -63.7504 2.43465 -89.9536
rradius 57.8056
rwrist -6.1206
rhand -30.4334 28.6919
rfingers 7.12502
rthumb -3.73601 -1.25507
lclavicle -1.90833e-014 0
lhumerus -45.2996 -1.97399 89.0862
lradius 96.3118
lwrist 13.5285
lhand -14.0413 -12.4245
lfingers 7.12502
lthumb 12.0892 17.2063
rfemur -36.5798 0.892988 19.5257
rtibia 61.9489
rfoot -24.6885 -1.69996
rtoes -20.4605
lfemur 11.1782 -1.55997 -23.5451
ltibia 35.2022
lfoot -27.2331 0.153019
ltoes -10.388
68
root -21.3648 16.4455 24.4108 -162.263 78.328 551.167
lowerback 13.2692 -6.11851 -2.40337
upperback 5.75135 -8.09242 -1.4667
thorax -1.21078 -3.92371 0.927704
lowerneck -0.472224 9.25438 0.0706651
upperneck 0.633137 12.672 -12.1815
head 1.16677 6.31597 -3.73834
rclavicle -1.59028e-015 -3.02153e-014
rhumerus -62.8201 2.36635 -89.9465
rradius 58.3606
rwrist -5.85597
rhand -30.7141 28.9881
rfingers 7.12502
rthumb -4.00704 -0.953946
lclavicle -1.59028e-015 -3.02153e-014
lhumerus -45.5523 -1.88485 89.3422
lradius 94.8111
lwrist 14.2151
lhand -13.9301 -12.3393
lfingers 7.12502
lthumb 12.1965 17.2851
rfemur -35.8252 0.579086 19.6399
rtibia 62.1546
rfoot -25.4325 -1.23899
rtoes -20.2382
lfemur 10.279 -1.37684 -23.3356
ltibia 37.7914
lfoot -26.3132 -0.0518899
ltoes -10.2296
69
root -21.21 16.3936 24.3577 -161.53 78.2625 552.026
lowerback 13.5538 -6.07602 -1.89626
upperback 5.7442 -7.97916 -1.44738
thorax -1.44147 -3.85517 0.692284
lowerneck -0.559347 9.29797 0.58924
upperneck 0.371516 12.7155 -12.5226
head 1.16485 6.34701 -3.94541
rclavicle 6.44062e-014 1.11319e-014
rhumerus -61.9472 2.3142 -90.0344
rradius 58.9649
rwrist -5.71793
rhand -31.0499 29.4414
rfingers 7.12502
rthumb -4.3313 -0.49426
lclavicle 6.44062e-014 1.11319e-014
lhumerus -45.7711 -1.82106 89.6154
lradius 93.2253
lwrist 14.9931
lhand -13.8929 -12.1451
lfingers 7.12502
lthumb 12.2324 17.4772
rfemur -35.0522 0.170771 19.7846
rtibia 62.3321
rfoot -26.1735 -0.768105
rtoes -20.3681
lfemur 9.18444 -1.00682 -23.0365
ltibia 40.659
lfoot -25.0696 -0.382062
ltoes -10.1633
70
root -21.0552 16.3393 24.3027 -160.637 78.1919 553.088
lowerback 13.8627 -6.02245 -1.33549
upperback 5.75795 -7.83893 -1.41798
thorax -1.66692 -3.77304 0.433427
lowerneck -0.606041 9.32311 1.11465
upperneck 0.0145871 12.7232 -12.8997
head 1.12601 6.36571 -4.17408
rclavicle 1.00983e-013 -1.27222e-014
rhumerus -60.9995 2.35113 -90.1682
rradius 59.6563
rwrist -5.71495
rhand -31.2404 29.8983
rfingers 7.12502
rthumb -4.51526 -0.0335605
lclavicle 1.00983e-013 -1.27222e-014
lhumerus -46.0186 -1.8255 89.9075
lradius 91.6216
lwrist 15.9646
lhand -14.0632 -11.8956
lfingers 7.12502
lthumb 12.0681 17.7364
rfemur -34.1959 -0.17653 19.9783
rtibia 62.474
rfoot -27.0164 -0.373268
rtoes -20.7327
lfemur 7.96381 -0.541588 -22.6372
ltibia 43.774
lfoot -23.4549 -0.674641
ltoes -10.5536
71
root -20.8986 16.2859 24.2477 -159.905 78.096 554.004
lowerback 14.2342 -5.97326 -0.807249
upperback 5.7354 -7.70621 -1.36696
thorax -1.95315 -3.69583 0.221788
lowerneck -0.610814 9.3413 1.52265
upperneck -0.385384 12.717 -13.2707
head 1.05565 6.38114 -4.38616
rclavicle -4.77083e-014 -1.59028e-014
rhumerus -60.0348 2.42471 -90.3251
rradius 60.4868
rwrist -5.75516
rhand -31.2062 30.256
rfingers 7.12502
rthumb -4.48225 0.323465
lclavicle -4.77083e-014 -1.59028e-014
lhumerus -46.3228 -1.7589 90.2407
lradius 89.8993
lwrist 16.9258
lhand -14.2941 -11.6951
lfingers 7.12502
lthumb 11.8455 17.9499
rfemur -33.3038 -0.584258 20.1466
rtibia 62.5554
rfoot -27.8604 -0.0765715
rtoes -21.2077
lfemur 6.62383 -0.0668192 -22.2404
ltibia 47.0687
lfoot -21.617 -0.880374
ltoes -11.9895
72
root -20.7356 16.2376 24.1889 -159.16 78.0224 554.918
lowerback 14.5066 -5.91886 -0.256193
upperback 5.74838 -7.55762 -1.3389
thorax -2.1527 -3.61206 -0.0435455
lowerneck -0.441466 9.31369 1.88986
upperneck -1.08636 12.6106 -13.6446
head 0.844286 6.36586 -4.6164
rclavicle -3.61788e-014 -1.59028e-015
rhumerus -58.9527 2.48741 -90.5385
rradius 61.488
rwrist -5.62374
rhand -30.9356 30.3937
rfingers 7.12502
rthumb -4.221 0.45574
lclavicle -3.61788e-014 -1.59028e-015
lhumerus -46.6985 -1.78354 90.5447
lradius 88.1845
lwrist 17.9192
lhand -14.8226 -11.4419
lfingers 7.12502
lthumb 11.3358 18.2317
rfemur -32.3452 -0.912828 20.2655
rtibia 62.5473
rfoot -28.6753 0.168154
rtoes -21.8056
lfemur 5.14606 0.408418 -21.8733
ltibia 50.4593
lfoot -19.5934 -1.01656
ltoes -13.7291
73
root -20.5691 16.1916 24.1289 -158.275 77.9108 555.975
lowerback 14.7776 -5.88426 0.341188
upperback 5.74007 -7.42669 -1.30371
thorax -2.37578 -3.53807 -0.324957
lowerneck -0.135827 9.25327 2.29339
upperneck -1.89792 12.4516 -14.1643
head 0.580363 6.33577 -4.92258
rclavicle -9.06458e-014 3.18055e-015
rhumerus -57.8358 2.56866 -90.8266
rradius 62.474
rwrist -5.40773
rhand -30.5541 30.7111
rfingers 7.12502
rthumb -3.85253 0.766227
lclavicle -9.06458e-014 3.18055e-015
lhumerus -47.1299 -1.7181 90.7976
lradius 86.2669
lwrist 18.832
lhand -15.3601 -11.3205
lfingers 7.12502
lthumb 10.8174 18.3809
rfemur -31.3282 -1.18492 20.3934
rtibia 62.465
rfoot -29.5349 0.508909
rtoes -21.8846
lfemur 3.58554 0.936188 -21.4117
ltibia 53.8888
lfoot -17.5 -1.27685
ltoes -15.0592
74
root -20.3997 16.1468 24.0671 -156.861 77.7848 557.557
lowerback 14.9812 -5.80741 1.06377
upperback 5.75527 -7.21801 -1.24458
thorax -2.54567 -3.42585 -0.673809
lowerneck 0.174001 9.1317 2.68006
upperneck -2.86287 12.1831 -15.0941
head 0.255683 6.25977 -4.80865
rclavicle -3.37934e-014 1.74931e-014
rhumerus -56.6809 2.69318 -91.1442
rradius 63.4162
rwrist -5.0809
rhand -30.1994 30.9641
rfingers 7.12502
rthumb -3.51002 1.01326
lclavicle -3.37934e-014 1.74931e-014
lhumerus -47.5647 -1.72903 91.0763
lradius 84.1874
lwrist 19.5991
lhand -16.0609 -11.313
lfingers 7.12502
lthumb 10.1414 18.4226
rfemur -30.2745 -1.44038 20.6437
rtibia 62.3253
rfoot -30.3718 0.788834
rtoes -22.0383
lfemur 1.97818 1.44682 -20.8536
ltibia 57.2982
lfoot -15.3976 -1.4779
ltoes -15.8852
